<svg xmlns="http://www.w3.org/2000/svg" viewBox="0 0 48 48" width="48" height="48">
  <!-- 背景：黑色圆角矩形 -->
  <rect width="48" height="48" rx="12" fill="#0f0f0f"/>
  <!-- 图标：白色极简图形 -->
  
            <circle cx="24" cy="24" r="6" fill="none" stroke="white" stroke-width="2.5"/>
            <path d="M24 10 L26 14 L28 10 L30 14 L32 10" fill="none" stroke="white" stroke-width="2" stroke-linecap="round" stroke-linejoin="round"/>
            <path d="M24 38 L26 34 L28 38 L30 34 L32 38" fill="none" stroke="white" stroke-width="2" stroke-linecap="round" stroke-linejoin="round"/>
            <path d="M10 24 L14 22 L10 20 L14 18 L10 16" fill="none" stroke="white" stroke-width="2" stroke-linecap="round" stroke-linejoin="round"/>
            <path d="M38 24 L34 22 L38 20 L34 18 L38 16" fill="none" stroke="white" stroke-width="2" stroke-linecap="round" stroke-linejoin="round"/>
            <circle cx="24" cy="24" r="6" fill="none" stroke="white" stroke-width="2.5"/>
            <path d="M21 11 L22 14 M27 11 L26 14 M11 21 L14 22 M11 27 L14 26 M21 37 L22 34 M27 37 L26 34 M37 21 L34 22 M37 27 L34 26" stroke="white" stroke-width="2.5" stroke-linecap="round"/>
        
</svg>